<mxfile host="app.diagrams.net" modified="2024-05-02T18:23:37.114Z" agent="Mozilla/5.0 (Windows NT 10.0; Win64; x64) AppleWebKit/537.36 (KHTML, like Gecko) Chrome/121.0.0.0 Safari/537.36 OPR/107.0.0.0" etag="6Lt3sJnWu_0XtO89-Noq" version="24.2.2" type="device">
  <diagram name="Seite-1" id="3G8G58sb3bfXZikpA64S">
    <mxGraphModel dx="1211" dy="659" grid="1" gridSize="10" guides="1" tooltips="1" connect="1" arrows="1" fold="1" page="1" pageScale="1" pageWidth="827" pageHeight="1169" math="0" shadow="0">
      <root>
        <mxCell id="0" />
        <mxCell id="1" parent="0" />
        <mxCell id="jdcSAK3IPF-zKG4RJlUi-18" value="&lt;p style=&quot;margin:0px;margin-top:6px;text-align:center;&quot;&gt;&lt;b&gt;klimaralley-server&lt;/b&gt;&lt;/p&gt;" style="align=left;overflow=fill;html=1;dropTarget=0;whiteSpace=wrap;" vertex="1" parent="1">
          <mxGeometry x="790" y="360" width="260" height="340" as="geometry" />
        </mxCell>
        <mxCell id="jdcSAK3IPF-zKG4RJlUi-19" value="" style="shape=component;jettyWidth=8;jettyHeight=4;" vertex="1" parent="jdcSAK3IPF-zKG4RJlUi-18">
          <mxGeometry x="1" width="20" height="20" relative="1" as="geometry">
            <mxPoint x="-24" y="4" as="offset" />
          </mxGeometry>
        </mxCell>
        <mxCell id="jdcSAK3IPF-zKG4RJlUi-10" value="REST API" style="shape=module;align=left;spacingLeft=20;align=center;verticalAlign=top;whiteSpace=wrap;html=1;" vertex="1" parent="1">
          <mxGeometry x="870" y="440" width="100" height="50" as="geometry" />
        </mxCell>
        <mxCell id="jdcSAK3IPF-zKG4RJlUi-12" value="Browser" style="shape=module;align=left;spacingLeft=20;align=center;verticalAlign=top;whiteSpace=wrap;html=1;" vertex="1" parent="1">
          <mxGeometry x="260" y="450" width="100" height="50" as="geometry" />
        </mxCell>
        <mxCell id="jdcSAK3IPF-zKG4RJlUi-15" value="&lt;p style=&quot;margin:0px;margin-top:6px;text-align:center;&quot;&gt;&lt;b&gt;wasserarm-satt&lt;/b&gt;&lt;/p&gt;" style="align=left;overflow=fill;html=1;dropTarget=0;whiteSpace=wrap;" vertex="1" parent="1">
          <mxGeometry x="414" y="390" width="180" height="130" as="geometry" />
        </mxCell>
        <mxCell id="jdcSAK3IPF-zKG4RJlUi-16" value="" style="shape=component;jettyWidth=8;jettyHeight=4;" vertex="1" parent="jdcSAK3IPF-zKG4RJlUi-15">
          <mxGeometry x="1" width="20" height="20" relative="1" as="geometry">
            <mxPoint x="-24" y="4" as="offset" />
          </mxGeometry>
        </mxCell>
        <mxCell id="jdcSAK3IPF-zKG4RJlUi-13" value="react frontend" style="shape=module;align=left;spacingLeft=20;align=center;verticalAlign=top;whiteSpace=wrap;html=1;" vertex="1" parent="1">
          <mxGeometry x="454" y="440" width="100" height="50" as="geometry" />
        </mxCell>
        <mxCell id="jdcSAK3IPF-zKG4RJlUi-14" value="" style="ellipse;whiteSpace=wrap;html=1;aspect=fixed;" vertex="1" parent="1">
          <mxGeometry x="670" y="400" width="30" height="30" as="geometry" />
        </mxCell>
        <mxCell id="jdcSAK3IPF-zKG4RJlUi-17" value="" style="endArrow=block;startArrow=block;endFill=1;startFill=1;html=1;rounded=0;exitX=1;exitY=0.5;exitDx=0;exitDy=0;entryX=0;entryY=0;entryDx=0;entryDy=35;entryPerimeter=0;" edge="1" parent="1" source="jdcSAK3IPF-zKG4RJlUi-12" target="jdcSAK3IPF-zKG4RJlUi-13">
          <mxGeometry width="160" relative="1" as="geometry">
            <mxPoint x="330" y="390" as="sourcePoint" />
            <mxPoint x="490" y="390" as="targetPoint" />
          </mxGeometry>
        </mxCell>
        <mxCell id="jdcSAK3IPF-zKG4RJlUi-20" value="" style="endArrow=classic;html=1;rounded=0;entryX=0;entryY=0.5;entryDx=0;entryDy=0;exitX=1;exitY=0.5;exitDx=0;exitDy=0;" edge="1" parent="1" source="jdcSAK3IPF-zKG4RJlUi-13" target="jdcSAK3IPF-zKG4RJlUi-14">
          <mxGeometry width="50" height="50" relative="1" as="geometry">
            <mxPoint x="380" y="430" as="sourcePoint" />
            <mxPoint x="440" y="370" as="targetPoint" />
          </mxGeometry>
        </mxCell>
        <mxCell id="jdcSAK3IPF-zKG4RJlUi-21" value="HTTP Resqest" style="text;html=1;align=center;verticalAlign=middle;resizable=0;points=[];autosize=1;strokeColor=none;fillColor=none;" vertex="1" parent="1">
          <mxGeometry x="635" y="360" width="100" height="30" as="geometry" />
        </mxCell>
        <mxCell id="jdcSAK3IPF-zKG4RJlUi-22" value="" style="endArrow=classic;html=1;rounded=0;exitX=1;exitY=0.5;exitDx=0;exitDy=0;entryX=0;entryY=0;entryDx=0;entryDy=15;entryPerimeter=0;" edge="1" parent="1" source="jdcSAK3IPF-zKG4RJlUi-14" target="jdcSAK3IPF-zKG4RJlUi-10">
          <mxGeometry width="50" height="50" relative="1" as="geometry">
            <mxPoint x="700" y="420" as="sourcePoint" />
            <mxPoint x="750" y="370" as="targetPoint" />
          </mxGeometry>
        </mxCell>
        <mxCell id="jdcSAK3IPF-zKG4RJlUi-24" value="" style="endArrow=classic;html=1;rounded=0;exitX=0;exitY=0;exitDx=0;exitDy=35;exitPerimeter=0;entryX=1;entryY=0.5;entryDx=0;entryDy=0;dashed=1;" edge="1" parent="1" source="jdcSAK3IPF-zKG4RJlUi-10" target="jdcSAK3IPF-zKG4RJlUi-25">
          <mxGeometry width="50" height="50" relative="1" as="geometry">
            <mxPoint x="570" y="425" as="sourcePoint" />
            <mxPoint x="600" y="510" as="targetPoint" />
          </mxGeometry>
        </mxCell>
        <mxCell id="jdcSAK3IPF-zKG4RJlUi-25" value="" style="ellipse;whiteSpace=wrap;html=1;aspect=fixed;" vertex="1" parent="1">
          <mxGeometry x="670" y="490" width="30" height="30" as="geometry" />
        </mxCell>
        <mxCell id="jdcSAK3IPF-zKG4RJlUi-26" value="JSon" style="text;html=1;align=center;verticalAlign=middle;resizable=0;points=[];autosize=1;strokeColor=none;fillColor=none;" vertex="1" parent="1">
          <mxGeometry x="660" y="460" width="50" height="30" as="geometry" />
        </mxCell>
        <mxCell id="jdcSAK3IPF-zKG4RJlUi-28" value="" style="endArrow=classic;html=1;rounded=0;exitX=0;exitY=0.5;exitDx=0;exitDy=0;entryX=1;entryY=0.75;entryDx=0;entryDy=0;dashed=1;" edge="1" parent="1" source="jdcSAK3IPF-zKG4RJlUi-25" target="jdcSAK3IPF-zKG4RJlUi-13">
          <mxGeometry width="50" height="50" relative="1" as="geometry">
            <mxPoint x="837" y="485" as="sourcePoint" />
            <mxPoint x="570" y="515" as="targetPoint" />
          </mxGeometry>
        </mxCell>
        <mxCell id="jdcSAK3IPF-zKG4RJlUi-29" value="Wasserarm sercice" style="shape=module;align=left;spacingLeft=20;align=center;verticalAlign=top;whiteSpace=wrap;html=1;" vertex="1" parent="1">
          <mxGeometry x="870" y="520" width="100" height="50" as="geometry" />
        </mxCell>
        <mxCell id="jdcSAK3IPF-zKG4RJlUi-31" value="&lt;p style=&quot;margin:0px;margin-top:6px;text-align:center;&quot;&gt;&lt;b&gt;datenbank-server&lt;/b&gt;&lt;/p&gt;" style="align=left;overflow=fill;html=1;dropTarget=0;whiteSpace=wrap;" vertex="1" parent="1">
          <mxGeometry x="1080" y="360" width="260" height="340" as="geometry" />
        </mxCell>
        <mxCell id="jdcSAK3IPF-zKG4RJlUi-32" value="" style="shape=component;jettyWidth=8;jettyHeight=4;" vertex="1" parent="jdcSAK3IPF-zKG4RJlUi-31">
          <mxGeometry x="1" width="20" height="20" relative="1" as="geometry">
            <mxPoint x="-24" y="4" as="offset" />
          </mxGeometry>
        </mxCell>
        <mxCell id="jdcSAK3IPF-zKG4RJlUi-33" value="MySQL Datenbank" style="shape=module;align=left;spacingLeft=20;align=center;verticalAlign=top;whiteSpace=wrap;html=1;" vertex="1" parent="1">
          <mxGeometry x="1160" y="460" width="100" height="50" as="geometry" />
        </mxCell>
        <mxCell id="jdcSAK3IPF-zKG4RJlUi-34" value="" style="endArrow=classic;html=1;rounded=0;exitX=1;exitY=0.25;exitDx=0;exitDy=0;entryX=0;entryY=0;entryDx=0;entryDy=15;entryPerimeter=0;" edge="1" parent="1" source="jdcSAK3IPF-zKG4RJlUi-37" target="jdcSAK3IPF-zKG4RJlUi-33">
          <mxGeometry width="50" height="50" relative="1" as="geometry">
            <mxPoint x="750" y="460" as="sourcePoint" />
            <mxPoint x="1100" y="540" as="targetPoint" />
          </mxGeometry>
        </mxCell>
        <mxCell id="jdcSAK3IPF-zKG4RJlUi-35" value="" style="endArrow=classic;html=1;rounded=0;dashed=1;exitX=0;exitY=0;exitDx=0;exitDy=35;exitPerimeter=0;entryX=1;entryY=0.75;entryDx=0;entryDy=0;" edge="1" parent="1" source="jdcSAK3IPF-zKG4RJlUi-33" target="jdcSAK3IPF-zKG4RJlUi-37">
          <mxGeometry width="50" height="50" relative="1" as="geometry">
            <mxPoint x="670" y="590" as="sourcePoint" />
            <mxPoint x="570" y="515" as="targetPoint" />
          </mxGeometry>
        </mxCell>
        <mxCell id="jdcSAK3IPF-zKG4RJlUi-36" value="" style="endArrow=classic;startArrow=classic;html=1;rounded=0;exitX=0.5;exitY=0;exitDx=0;exitDy=0;" edge="1" parent="1" source="jdcSAK3IPF-zKG4RJlUi-29">
          <mxGeometry width="50" height="50" relative="1" as="geometry">
            <mxPoint x="890" y="550" as="sourcePoint" />
            <mxPoint x="920" y="490" as="targetPoint" />
          </mxGeometry>
        </mxCell>
        <mxCell id="jdcSAK3IPF-zKG4RJlUi-37" value="storage" style="shape=module;align=left;spacingLeft=20;align=center;verticalAlign=top;whiteSpace=wrap;html=1;" vertex="1" parent="1">
          <mxGeometry x="870" y="600" width="100" height="50" as="geometry" />
        </mxCell>
        <mxCell id="jdcSAK3IPF-zKG4RJlUi-38" value="" style="endArrow=classic;startArrow=classic;html=1;rounded=0;exitX=0.5;exitY=0;exitDx=0;exitDy=0;entryX=0.5;entryY=1;entryDx=0;entryDy=0;" edge="1" parent="1" source="jdcSAK3IPF-zKG4RJlUi-37" target="jdcSAK3IPF-zKG4RJlUi-29">
          <mxGeometry width="50" height="50" relative="1" as="geometry">
            <mxPoint x="930" y="530" as="sourcePoint" />
            <mxPoint x="930" y="500" as="targetPoint" />
          </mxGeometry>
        </mxCell>
      </root>
    </mxGraphModel>
  </diagram>
</mxfile>
